<?xml version="1.0" standalone="no"?>
<!DOCTYPE svg PUBLIC "-//W3C//DTD SVG 20010904//EN"
 "http://www.w3.org/TR/2001/REC-SVG-20010904/DTD/svg10.dtd">
<svg version="1.0" xmlns="http://www.w3.org/2000/svg"
 width="787.000000pt" height="686.000000pt" viewBox="0 0 787.000000 686.000000"
 preserveAspectRatio="xMidYMid meet">
<metadata>
Created by potrace 1.16, written by Peter Selinger 2001-2019
</metadata>
<g transform="translate(0.000000,686.000000) scale(0.100000,-0.100000)"
fill="#000000" stroke="none">
<path d="M1995 5033 c-190 -10 -504 -36 -595 -49 -138 -21 -188 -43 -253 -114
-98 -106 -347 -496 -347 -545 0 -29 27 -64 58 -76 21 -8 38 -2 111 40 196 112
339 160 571 193 197 27 725 10 918 -30 l32 -7 -102 -80 c-613 -480 -1098
-1017 -1425 -1577 -260 -444 -343 -745 -251 -909 33 -60 84 -84 173 -83 78 1
131 17 251 75 125 61 403 250 404 275 1 27 -26 35 -77 23 -68 -16 -101 -7
-105 29 -21 185 160 603 430 991 260 373 605 761 982 1104 96 87 184 172 194
189 16 25 19 47 18 127 -1 102 -22 200 -68 328 -24 66 -29 73 -58 77 -124 19
-640 31 -861 19z"/>
<path d="M5825 4738 c-234 -238 -365 -400 -500 -618 -67 -109 -143 -265 -174
-360 l-21 -65 25 -92 c45 -169 138 -315 209 -328 21 -4 106 13 266 54 312 79
404 94 580 95 177 1 254 -20 325 -88 81 -77 80 -153 -1 -278 -127 -197 -390
-401 -709 -553 -225 -107 -363 -147 -575 -166 -193 -18 -320 5 -320 60 0 41
116 114 277 175 77 29 92 41 75 58 -13 13 -169 -4 -268 -30 -148 -39 -313
-130 -392 -217 -71 -77 -97 -153 -96 -275 1 -155 47 -246 147 -293 73 -34 161
-47 328 -47 509 0 956 166 1357 503 188 158 338 380 401 593 28 95 51 251 51
347 0 107 -34 267 -75 352 -91 190 -269 296 -520 312 -143 8 -352 -29 -620
-112 -77 -24 -142 -42 -144 -40 -7 8 100 190 167 284 37 52 116 146 175 208
l109 113 346 -6 c208 -4 421 -2 532 4 l185 11 55 59 c30 33 77 97 105 143 49
82 184 338 185 350 0 3 -235 5 -522 5 -288 -1 -584 3 -658 7 l-136 8 -169
-173z"/>
<path d="M4335 4812 c-618 -325 -1093 -749 -1430 -1277 -184 -288 -285 -578
-285 -820 0 -275 114 -548 310 -746 260 -261 587 -246 976 45 383 287 714 865
714 1249 0 97 -27 214 -67 294 -55 108 -180 203 -308 234 -28 6 -99 11 -160
11 -257 0 -463 -110 -784 -417 -163 -157 -160 -138 14 80 190 237 363 415 585
601 261 217 475 360 845 564 224 123 268 157 249 188 -15 24 -46 29 -232 41
-92 6 -196 14 -232 16 -65 5 -66 5 -195 -63z m-195 -1297 c59 -31 84 -92 82
-206 -4 -225 -148 -494 -397 -744 -175 -176 -421 -346 -534 -370 -161 -34
-239 38 -249 232 -13 245 59 403 287 630 218 219 484 407 646 459 55 17 130
17 165 -1z"/>
</g>
</svg>
